<svg width="50" height="55" viewBox="0 0 50 55" fill="none" xmlns="http://www.w3.org/2000/svg">
    <path d="M8.43647 18.426L0.359009 22.8203V13.6132L8.43647 9.21887V18.426Z" fill="#0A64A4"/>
    <path d="M0.359015 23.0121C0.323115 23.0121 0.287215 22.9947 0.251315 22.9773C0.197465 22.9424 0.143616 22.8726 0.143616 22.8029V13.5958C0.143616 13.526 0.179516 13.4562 0.251315 13.4214L8.32877 9.0445C8.38262 9.00962 8.47237 9.00962 8.52622 9.0445C8.58007 9.07937 8.63392 9.14912 8.63392 9.21888V18.426C8.63392 18.4958 8.59802 18.5655 8.52622 18.6004L0.448764 22.9773C0.430814 22.9947 0.394914 23.0121 0.359015 23.0121ZM0.556464 13.7178V22.489L8.23902 18.3214V9.55019L0.556464 13.7178Z"
          fill="black"/>
    <path d="M8.43647 27.1972L0.359009 22.8203V32.0274L8.43647 36.4043V27.1972Z" fill="#2B2D30"/>
    <path d="M8.43647 36.5961C8.40057 36.5961 8.36467 36.5961 8.34672 36.5787L0.26926 32.2018C0.19746 32.1669 0.16156 32.0972 0.16156 32.0274V22.8203C0.16156 22.7506 0.19746 22.6808 0.26926 22.6459C0.323109 22.6111 0.412859 22.6111 0.466708 22.6459L8.54417 27.0228C8.61597 27.0577 8.65187 27.1274 8.65187 27.1972V36.4043C8.65187 36.4741 8.61597 36.5438 8.54417 36.5787C8.50827 36.5961 8.47237 36.5961 8.43647 36.5961ZM0.556458 31.9054L8.23902 36.073V27.3018L0.556458 23.1342V31.9054Z"
          fill="black"/>
    <path d="M24.5914 36.3869L16.5139 31.9926V41.2172L24.5914 45.594V36.3869Z" fill="#2B2D30"/>
    <path d="M24.5914 45.7858C24.5555 45.7858 24.5196 45.7858 24.5016 45.7684L16.4242 41.3915C16.3524 41.3566 16.3165 41.2869 16.3165 41.2171V32.01C16.3165 31.9403 16.3524 31.8705 16.4242 31.8356C16.478 31.8008 16.5678 31.8008 16.6216 31.8356L24.6991 36.2125C24.7709 36.2474 24.8068 36.3171 24.8068 36.3869V45.594C24.8068 45.6638 24.7709 45.7335 24.6991 45.7684C24.6632 45.7858 24.6273 45.7858 24.5914 45.7858ZM16.7114 41.0951L24.3939 45.2627V36.4915L16.7114 32.3239V41.0951Z"
          fill="black"/>
    <path d="M8.43647 36.3869L0.359009 31.9926V41.2172L8.43647 45.594V36.3869Z" fill="#2B2D30"/>
    <path d="M8.43647 45.7858C8.40057 45.7858 8.36467 45.7858 8.34672 45.7684L0.26926 41.3915C0.19746 41.3566 0.16156 41.2869 0.16156 41.2171V32.01C0.16156 31.9403 0.19746 31.8705 0.26926 31.8356C0.323109 31.8008 0.412859 31.8008 0.466708 31.8356L8.54417 36.2125C8.61597 36.2474 8.65187 36.3171 8.65187 36.3869V45.594C8.65187 45.6638 8.61597 45.7335 8.54417 45.7684C8.50827 45.7858 8.47237 45.7858 8.43647 45.7858ZM0.556458 41.0951L8.23902 45.2627V36.4915L0.556458 32.3239V41.0951Z"
          fill="black"/>
    <path d="M48.8058 13.6132L40.7283 9.21887V18.426L48.8058 22.8203V13.6132Z" fill="#2B2D30"/>
    <path d="M48.8058 23.0121C48.7699 23.0121 48.734 23.0121 48.716 22.9947L40.6386 18.6178C40.5668 18.5829 40.5309 18.5132 40.5309 18.4434V9.21888C40.5309 9.14912 40.5668 9.07937 40.6386 9.0445C40.6924 9.00962 40.7822 9.00962 40.836 9.0445L48.9135 13.4214C48.9853 13.4562 49.0212 13.526 49.0212 13.5958V22.8203C49.0212 22.8901 48.9853 22.9598 48.9135 22.9947C48.8776 22.9947 48.8417 23.0121 48.8058 23.0121ZM40.9258 18.3214L48.6083 22.489V13.7178L40.9258 9.55019V18.3214Z"
          fill="black"/>
    <path d="M48.8058 22.7854L40.7283 18.4086V27.6157L48.8058 31.9926V22.7854Z" fill="#2B2D30"/>
    <path d="M48.8058 32.2018C48.7699 32.2018 48.734 32.2018 48.716 32.1844L40.6386 27.8075C40.5668 27.7727 40.5309 27.7029 40.5309 27.6332V18.426C40.5309 18.3563 40.5668 18.2865 40.6386 18.2517C40.6924 18.2168 40.7822 18.2168 40.836 18.2517L48.9135 22.6285C48.9853 22.6634 49.0212 22.7332 49.0212 22.8029V32.01C49.0212 32.0798 48.9853 32.1495 48.9135 32.1844C48.8776 32.1844 48.8417 32.2018 48.8058 32.2018ZM40.9258 27.4937L48.6083 31.6613V22.8901L40.9258 18.7399V27.4937Z"
          fill="black"/>
    <path d="M32.6688 13.6132L24.5734 9.21887V18.426L32.6688 22.8203V13.6132Z" fill="#2B2D30"/>
    <path d="M32.6688 23.0121C32.6329 23.0121 32.597 23.0121 32.5791 22.9947L24.5016 18.6178C24.4298 18.5829 24.3939 18.5132 24.3939 18.4434V9.21888C24.3939 9.14912 24.4298 9.07937 24.5016 9.0445C24.5555 9.00962 24.6452 9.00962 24.6991 9.0445L32.7765 13.4214C32.8483 13.4562 32.8842 13.526 32.8842 13.5958V22.8203C32.8842 22.8901 32.8483 22.9598 32.7765 22.9947C32.7406 22.9947 32.7047 23.0121 32.6688 23.0121ZM24.7888 18.3214L32.4714 22.489V13.7178L24.7888 9.55019V18.3214Z"
          fill="black"/>
    <path d="M24.5914 9.21889L16.5139 4.84201V14.0491L24.5914 18.426V9.21889Z" fill="#2B2D30"/>
    <path d="M24.5914 18.6178C24.5555 18.6178 24.5196 18.6178 24.5016 18.6004L16.4242 14.2235C16.3524 14.1886 16.3165 14.1189 16.3165 14.0491V4.84201C16.3165 4.77226 16.3524 4.70251 16.4242 4.66764C16.478 4.63276 16.5678 4.63276 16.6216 4.66764L24.6991 9.04451C24.7709 9.07939 24.8068 9.14914 24.8068 9.21889V18.426C24.8068 18.4958 24.7709 18.5655 24.6991 18.6004C24.6632 18.6178 24.6273 18.6178 24.5914 18.6178ZM16.7114 13.9271L24.3939 18.0947V9.32352L16.7114 5.15589V13.9271Z"
          fill="black"/>
    <path d="M32.6688 22.7854L24.5734 18.4086V27.6157L32.6688 31.9926V22.7854Z" fill="#2B2D30"/>
    <path d="M32.6688 32.2018C32.6329 32.2018 32.597 32.2018 32.5791 32.1844L24.5016 27.8075C24.4298 27.7727 24.3939 27.7029 24.3939 27.6332V18.426C24.3939 18.3563 24.4298 18.2865 24.5016 18.2517C24.5555 18.2168 24.6452 18.2168 24.6991 18.2517L32.7765 22.6285C32.8483 22.6634 32.8842 22.7332 32.8842 22.8029V32.01C32.8842 32.0798 32.8483 32.1495 32.7765 32.1844C32.7406 32.1844 32.7047 32.2018 32.6688 32.2018ZM24.7888 27.4937L32.4714 31.6613V22.8901L24.7888 18.7225V27.4937Z"
          fill="black"/>
    <path d="M32.6688 40.7986L24.5734 36.4043V45.6115L32.6688 50.0058V40.7986Z" fill="#2B2D30"/>
    <path d="M32.6688 50.1976C32.6329 50.1976 32.597 50.1976 32.5791 50.1802L24.5016 45.8033C24.4298 45.7684 24.3939 45.6987 24.3939 45.6289V36.4218C24.3939 36.352 24.4298 36.2823 24.5016 36.2474C24.5555 36.2125 24.6452 36.2125 24.6991 36.2474L32.7765 40.6243C32.8483 40.6592 32.8842 40.7289 32.8842 40.7987V50.0058C32.8842 50.0755 32.8483 50.1453 32.7765 50.1802C32.7406 50.1802 32.7047 50.1976 32.6688 50.1976ZM24.7888 45.5069L32.4714 49.6745V40.9033L24.7888 36.7357V45.5069Z"
          fill="black"/>
    <path d="M16.5139 14.0492L8.43647 18.426L8.41852 9.2189L16.5139 4.82458V14.0492Z" fill="#0A64A4"/>
    <path d="M8.43647 18.6178C8.40057 18.6178 8.36467 18.6004 8.32877 18.583C8.27492 18.5481 8.23902 18.4783 8.22107 18.4086L8.20312 9.18401C8.20312 9.11425 8.23902 9.0445 8.31082 9.00963L16.3883 4.63275C16.4421 4.59788 16.5319 4.59788 16.5857 4.63275C16.6396 4.66763 16.6934 4.73738 16.6934 4.80713V14.0143C16.6934 14.084 16.6575 14.1538 16.5857 14.1886L8.50827 18.583C8.50827 18.6178 8.47237 18.6178 8.43647 18.6178ZM8.63392 9.32351L8.65187 18.0947L16.3165 13.9271V5.15589L8.63392 9.32351Z"
          fill="black"/>
    <path d="M16.5139 32.0274L8.43646 36.4218V27.1972L16.5139 22.8203V32.0274Z" fill="#0A64A4"/>
    <path d="M8.43647 36.6136C8.40057 36.6136 8.36467 36.5961 8.32877 36.5787C8.27492 36.5438 8.22107 36.4741 8.22107 36.4043V27.1972C8.22107 27.1274 8.25697 27.0577 8.32877 27.0228L16.4062 22.6459C16.4601 22.6111 16.5498 22.6111 16.6037 22.6459C16.6575 22.6808 16.7114 22.7506 16.7114 22.8203V32.0274C16.7114 32.0972 16.6755 32.1669 16.6037 32.2018L8.52622 36.5787C8.50827 36.5961 8.47237 36.6136 8.43647 36.6136ZM8.63392 27.3193V36.0904L16.3165 31.9228V23.1516L8.63392 27.3193Z"
          fill="black"/>
    <path d="M16.5139 41.2172L8.43646 45.594V36.3869L16.5139 31.9926V41.2172Z" fill="#0A64A4"/>
    <path d="M8.43647 45.7858C8.40057 45.7858 8.36467 45.7684 8.32877 45.751C8.27492 45.7161 8.22107 45.6463 8.22107 45.5766V36.3695C8.22107 36.2997 8.25697 36.23 8.32877 36.1951L16.4062 31.8182C16.4601 31.7833 16.5498 31.7833 16.6037 31.8182C16.6575 31.8531 16.7114 31.9228 16.7114 31.9926V41.1997C16.7114 41.2695 16.6755 41.3392 16.6037 41.3741L8.52622 45.751C8.50827 45.7858 8.47237 45.7858 8.43647 45.7858ZM8.63392 36.4915V45.2627L16.3165 41.0951V32.3239L8.63392 36.4915Z"
          fill="black"/>
    <path d="M40.7463 18.426L32.6688 22.8203V13.6132L40.7463 9.21887V18.426Z" fill="#0A64A4"/>
    <path d="M32.6688 23.0121C32.6329 23.0121 32.597 22.9947 32.5611 22.9773C32.5073 22.9424 32.4534 22.8726 32.4534 22.8029V13.5958C32.4534 13.526 32.4893 13.4562 32.5611 13.4214L40.6386 9.0445C40.6924 9.00962 40.7822 9.00962 40.836 9.0445C40.8899 9.07937 40.9437 9.14912 40.9437 9.21888V18.426C40.9437 18.4958 40.9078 18.5655 40.836 18.6004L32.7586 22.9773C32.7227 22.9947 32.6868 23.0121 32.6688 23.0121ZM32.8663 13.7178V22.489L40.5488 18.3214V9.55019L32.8663 13.7178Z"
          fill="black"/>
    <path d="M40.7463 27.6157L32.6688 31.9926V22.7855L40.7463 18.3911V27.6157Z" fill="#0A64A4"/>
    <path d="M32.6688 32.1844C32.6329 32.1844 32.597 32.167 32.5611 32.1495C32.5073 32.1147 32.4534 32.0449 32.4534 31.9752V22.768C32.4534 22.6983 32.4893 22.6285 32.5611 22.5936L40.6386 18.2168C40.6924 18.1819 40.7822 18.1819 40.836 18.2168C40.8899 18.2516 40.9437 18.3214 40.9437 18.3911V27.5983C40.9437 27.668 40.9078 27.7378 40.836 27.7727L32.7586 32.1495C32.7227 32.1844 32.6868 32.1844 32.6688 32.1844ZM32.8663 22.8901V31.6613L40.5488 27.4937V18.7225L32.8663 22.8901Z"
          fill="black"/>
    <path d="M24.5734 27.6506L16.5139 32.0275L16.496 22.8203L24.5734 18.426V27.6506Z" fill="#0A64A4"/>
    <path d="M16.5139 32.2193C16.478 32.2193 16.4421 32.2018 16.4062 32.1844C16.3524 32.1495 16.3165 32.0798 16.2985 32.01L16.2806 22.7854C16.2806 22.7157 16.3165 22.6459 16.3883 22.6111L24.4657 18.2342C24.5196 18.1993 24.6093 18.1993 24.6632 18.2342C24.717 18.2691 24.7709 18.3388 24.7709 18.4086V27.6157C24.7709 27.6855 24.735 27.7552 24.6632 27.7901L16.5857 32.1844C16.5857 32.2193 16.5498 32.2193 16.5139 32.2193ZM16.6934 22.9249L16.7114 31.6961L24.376 27.5285V18.7573L16.6934 22.9249Z"
          fill="black"/>
    <path d="M40.7463 45.6289L32.6688 50.0232V40.7986L40.7463 36.4218V45.6289Z" fill="#0A64A4"/>
    <path d="M32.6688 50.215C32.6329 50.215 32.597 50.1976 32.5611 50.1802C32.5073 50.1453 32.4534 50.0755 32.4534 50.0058V40.7987C32.4534 40.7289 32.4893 40.6592 32.5611 40.6243L40.6386 36.2474C40.6924 36.2125 40.7822 36.2125 40.836 36.2474C40.8899 36.2823 40.9437 36.352 40.9437 36.4218V45.6289C40.9437 45.6987 40.9078 45.7684 40.836 45.8033L32.7586 50.1802C32.7227 50.1976 32.6868 50.215 32.6688 50.215ZM32.8663 40.9207V49.6919L40.5488 45.5243V36.7531L32.8663 40.9207Z"
          fill="black"/>
    <path d="M48.8058 41.2346L40.7463 45.6289L40.7283 36.4218L48.8058 32.0275V41.2346Z" fill="#0A64A4"/>
    <path d="M40.7463 45.8207C40.7104 45.8207 40.6745 45.8033 40.6386 45.7858C40.5847 45.751 40.5488 45.6812 40.5309 45.6115L40.5129 36.3869C40.5129 36.3171 40.5488 36.2474 40.6206 36.2125L48.6981 31.8356C48.7519 31.8008 48.8417 31.8008 48.8955 31.8356C48.9494 31.8705 49.0032 31.9403 49.0032 32.01V41.2171C49.0032 41.2869 48.9673 41.3566 48.8955 41.3915L40.8181 45.7858C40.8001 45.8207 40.7822 45.8207 40.7463 45.8207ZM40.9258 36.5264L40.9437 45.2976L48.6083 41.13V32.3588L40.9258 36.5264Z"
          fill="black"/>
    <path d="M40.7283 9.21889L32.6509 4.84201L24.5914 9.21889L32.6509 13.6132L40.7283 9.21889Z" fill="#C700FF"/>
    <path d="M32.6509 13.805C32.615 13.805 32.5791 13.805 32.5611 13.7876L24.4837 9.4107C24.4119 9.37583 24.376 9.30608 24.376 9.23633C24.376 9.16658 24.4119 9.09682 24.4837 9.06195L32.5611 4.66764C32.615 4.63276 32.7047 4.63276 32.7586 4.66764L40.836 9.06195C40.9078 9.09682 40.9437 9.16658 40.9437 9.23633C40.9437 9.30608 40.9078 9.37583 40.836 9.4107L32.7586 13.7876C32.7227 13.7876 32.6868 13.805 32.6509 13.805ZM25.0042 9.21889L32.6688 13.3691L40.3334 9.20145L32.6688 5.03383L25.0042 9.21889Z"
          fill="black"/>
    <path d="M32.6688 4.84201L24.5914 0.447693L16.5139 4.84201L24.5914 9.21888L32.6688 4.84201Z" fill="#C700FF"/>
    <path d="M24.5914 9.4107C24.5555 9.4107 24.5196 9.4107 24.5016 9.39326L16.4242 5.01639C16.3524 4.98151 16.3165 4.91176 16.3165 4.84201C16.3165 4.77226 16.3524 4.70251 16.4242 4.66763L24.5016 0.273318C24.5555 0.238443 24.6452 0.238443 24.6991 0.273318L32.7765 4.66763C32.8483 4.70251 32.8842 4.77226 32.8842 4.84201C32.8842 4.91176 32.8483 4.98151 32.7765 5.01639L24.6991 9.39326C24.6452 9.4107 24.6093 9.4107 24.5914 9.4107ZM16.9268 4.84201L24.5914 8.99219L32.256 4.82457L24.5914 0.674387L16.9268 4.84201Z"
          fill="black"/>
    <path d="M40.7283 36.352L32.6509 31.9577L24.5914 36.352L32.6509 40.7289L40.7283 36.352Z" fill="#C700FF"/>
    <path d="M32.6509 40.9207C32.615 40.9207 32.5791 40.9207 32.5611 40.9033L24.4837 36.5264C24.4119 36.4915 24.376 36.4218 24.376 36.352C24.376 36.2823 24.4119 36.2125 24.4837 36.1776L32.5611 31.7833C32.615 31.7485 32.7047 31.7485 32.7586 31.7833L40.836 36.1776C40.9078 36.2125 40.9437 36.2823 40.9437 36.352C40.9437 36.4218 40.9078 36.4915 40.836 36.5264L32.7586 40.9033C32.7227 40.9207 32.6868 40.9207 32.6509 40.9207ZM24.9863 36.352L32.6509 40.5022L40.3155 36.3346L32.6509 32.167L24.9863 36.352Z"
          fill="black"/>
    <path d="M48.8237 31.9926L40.7283 27.6157L32.6688 31.9926L40.7283 36.3694L48.8237 31.9926Z" fill="#C700FF"/>
    <path d="M40.7283 36.5787C40.6924 36.5787 40.6565 36.5787 40.6386 36.5613L32.5611 32.1844C32.4893 32.1495 32.4534 32.0798 32.4534 32.01C32.4534 31.9403 32.4893 31.8705 32.5611 31.8356L40.6386 27.4413C40.6924 27.4064 40.7822 27.4064 40.836 27.4413L48.9135 31.8356C48.9853 31.8705 49.0212 31.9403 49.0212 32.01C49.0212 32.0798 48.9853 32.1495 48.9135 32.1844L40.836 36.5613C40.8001 36.5613 40.7642 36.5787 40.7283 36.5787ZM33.0817 31.9926L40.7463 36.1428L48.4109 31.9751L40.7463 27.8075L33.0817 31.9926Z"
          fill="black"/>
    <path d="M32.6688 31.9577L24.5734 27.5808L16.5139 31.9577L24.5734 36.352L32.6688 31.9577Z" fill="#C700FF"/>
    <path d="M24.5734 36.5438C24.5375 36.5438 24.5016 36.5438 24.4837 36.5264L16.4062 32.1495C16.3344 32.1147 16.2985 32.0449 16.2985 31.9752C16.2985 31.9054 16.3344 31.8357 16.4062 31.8008L24.4837 27.4065C24.5375 27.3716 24.6273 27.3716 24.6811 27.4065L32.7586 31.8008C32.8304 31.8357 32.8663 31.9054 32.8663 31.9752C32.8663 32.0449 32.8304 32.1147 32.7586 32.1495L24.6811 36.5264C24.6452 36.5264 24.6093 36.5438 24.5734 36.5438ZM16.9268 31.9577L24.5914 36.1079L32.256 31.9403L24.5914 27.7727L16.9268 31.9577Z"
          fill="black"/>
    <path d="M32.6509 50.0058L24.5734 45.6289L16.496 50.0058L24.5734 54.4001L32.6509 50.0058Z" fill="#C700FF"/>
    <path d="M24.5734 54.5919C24.5375 54.5919 24.5016 54.5919 24.4837 54.5745L16.4062 50.1976C16.3344 50.1627 16.2985 50.093 16.2985 50.0232C16.2985 49.9535 16.3344 49.8837 16.4062 49.8488L24.4837 45.4545C24.5375 45.4197 24.6273 45.4197 24.6811 45.4545L32.7586 49.8488C32.8304 49.8837 32.8663 49.9535 32.8663 50.0232C32.8663 50.093 32.8304 50.1627 32.7586 50.1976L24.6811 54.5745C24.6452 54.5745 24.6093 54.5919 24.5734 54.5919ZM16.9088 50.0058L24.5734 54.156L32.238 49.9883L24.5734 45.8382L16.9088 50.0058Z"
          fill="black"/>
    <path d="M24.5734 45.6289L16.496 41.2346L8.43646 45.6289L16.496 50.0058L24.5734 45.6289Z" fill="#C700FF"/>
    <path d="M16.496 50.1976C16.4601 50.1976 16.4242 50.1976 16.4062 50.1802L8.32877 45.8033C8.25697 45.7684 8.22107 45.6987 8.22107 45.6289C8.22107 45.5592 8.25697 45.4894 8.32877 45.4545L16.4062 41.0602C16.4601 41.0253 16.5498 41.0253 16.6037 41.0602L24.6811 45.4545C24.7529 45.4894 24.7888 45.5592 24.7888 45.6289C24.7888 45.6987 24.7529 45.7684 24.6811 45.8033L16.6037 50.1802C16.5678 50.1976 16.5319 50.1976 16.496 50.1976ZM8.84932 45.6289L16.5139 49.7791L24.1785 45.6115L16.5139 41.4438L8.84932 45.6289Z"
          fill="black"/>
    <path d="M24.5914 18.4086L16.5139 14.0143L8.43646 18.4086L16.5139 22.7854L24.5914 18.4086Z" fill="#C700FF"/>
    <path d="M16.5139 22.9773C16.478 22.9773 16.4421 22.9773 16.4242 22.9598L8.34671 18.5829C8.27491 18.5481 8.23901 18.4783 8.23901 18.4086C8.23901 18.3388 8.27491 18.2691 8.34671 18.2342L16.4242 13.8399C16.478 13.805 16.5678 13.805 16.6216 13.8399L24.6991 18.2342C24.7709 18.2691 24.8068 18.3388 24.8068 18.4086C24.8068 18.4783 24.7709 18.5481 24.6991 18.5829L16.6216 22.9598C16.5678 22.9773 16.5498 22.9773 16.5139 22.9773ZM8.84931 18.4086L16.5139 22.5588L24.1785 18.3911L16.5139 14.2409L8.84931 18.4086Z"
          fill="black"/>
    <path d="M16.496 22.8203L8.41852 18.426L0.359009 22.8203L8.41852 27.1972L16.496 22.8203Z" fill="#C700FF"/>
    <path d="M8.41852 27.389C8.38262 27.389 8.34672 27.389 8.32877 27.3716L0.251315 22.9947C0.179516 22.9598 0.143616 22.8901 0.143616 22.8203C0.143616 22.7506 0.179516 22.6808 0.251315 22.646L8.32877 18.2517C8.38262 18.2168 8.47237 18.2168 8.52622 18.2517L16.6037 22.646C16.6755 22.6808 16.7114 22.7506 16.7114 22.8203C16.7114 22.8901 16.6755 22.9598 16.6037 22.9947L8.52622 27.3716C8.49032 27.389 8.45442 27.389 8.41852 27.389ZM0.753912 22.8203L8.41852 26.9705L16.0831 22.8029L8.41852 18.6353L0.753912 22.8203Z"
          fill="black"/>
</svg>
